<?xml version="1.0" encoding="UTF-8" standalone="no"?>
<svg
   height="16"
   width="16"
   version="1.1"
   id="svg4"
   sodipodi:docname="SceneUniqueName.svg"
   inkscape:version="1.1.2 (0a00cf5339, 2022-02-04)"
   xmlns:inkscape="http://www.inkscape.org/namespaces/inkscape"
   xmlns:sodipodi="http://sodipodi.sourceforge.net/DTD/sodipodi-0.dtd"
   xmlns="http://www.w3.org/2000/svg"
   xmlns:svg="http://www.w3.org/2000/svg">
  <defs
     id="defs8" />
  <sodipodi:namedview
     id="namedview6"
     pagecolor="#505050"
     bordercolor="#eeeeee"
     borderopacity="1"
     inkscape:pageshadow="0"
     inkscape:pageopacity="0"
     inkscape:pagecheckerboard="0"
     showgrid="false"
     inkscape:zoom="54.5625"
     inkscape:cx="7.9816724"
     inkscape:cy="5.0584192"
     inkscape:window-width="2560"
     inkscape:window-height="1411"
     inkscape:window-x="2560"
     inkscape:window-y="0"
     inkscape:window-maximized="1"
     inkscape:current-layer="svg4" />
  <path
     d="M4.378 2.224q1.235 0 2.084.866.865.85.865 2.083 0 1.17-.881 2.036-.866.85-2.068.85-1.218 0-2.083-.85-.866-.866-.866-2.068t.866-2.051q.865-.866 2.083-.866zm.962 1.988q-.4-.4-.962-.4-.56 0-.961.4-.401.384-.401.93 0 .56.4.961.401.385.962.385.561 0 .962-.385.4-.4.4-.946 0-.56-.4-.945zm5.45-2.116h1.218L5.677 13.78H4.442Zm1.17 5.722q1.234 0 2.083.866.866.849.866 2.1 0 1.17-.882 2.035-.865.85-2.068.85-1.218 0-2.083-.85-.866-.866-.866-2.084 0-1.202.866-2.051.865-.866 2.083-.866zm.961 1.987q-.4-.4-.962-.4-.56 0-.961.4-.4.385-.4.946 0 .561.4.962.4.384.961.384.561 0 .962-.384.4-.4.4-.946 0-.56-.4-.962z"
     aria-label="%"
     style="font-weight:600;font-size:16.0277px;font-family:FreeSans;-inkscape-font-specification:'FreeSans Semi-Bold';letter-spacing:0;word-spacing:0;fill:#b3efb8;fill-opacity:0.99607843;stroke-width:0.400692"
     id="path2" />
</svg>
